<svg id="b7f7644d-5d46-43a8-ad70-45ad2527eb21" data-name="Layer 1" xmlns="http://www.w3.org/2000/svg" viewBox="0 0 376.98 55.92"><path d="M9.18,14.77h7.38v3.72H17a10.06,10.06,0,0,1,3.66-3.33,11.07,11.07,0,0,1,5.52-1.35,14.16,14.16,0,0,1,12.84,7.86A18,18,0,0,1,41,30.07a18,18,0,0,1-1.92,8.43,14.35,14.35,0,0,1-5.31,5.76,14.17,14.17,0,0,1-7.53,2.07A11.44,11.44,0,0,1,20.67,45,9.29,9.29,0,0,1,17,41.71h-.48L17,46v12.3H9.18ZM29,37.93A8.36,8.36,0,0,0,32,34.75a9.43,9.43,0,0,0,1.14-4.68A9.43,9.43,0,0,0,32,25.39a8.16,8.16,0,0,0-7.2-4.26,8,8,0,0,0-4.08,1.11,8.14,8.14,0,0,0-3.06,3.15,9.43,9.43,0,0,0-1.14,4.68,9.43,9.43,0,0,0,1.14,4.68,8.36,8.36,0,0,0,3.06,3.18,7.86,7.86,0,0,0,4.08,1.14A8,8,0,0,0,29,37.93Z" transform="translate(-9.18 -2.41)" fill="#fff"/><path d="M48.42,43.48A9.64,9.64,0,0,1,45.3,36a9.25,9.25,0,0,1,1.62-5.4A10.44,10.44,0,0,1,51.36,27a15.13,15.13,0,0,1,6.24-1.26,21.3,21.3,0,0,1,8.1,1.38V25.81a5,5,0,0,0-1.89-4.08,7.72,7.72,0,0,0-5.07-1.56,9.33,9.33,0,0,0-4.17,1,9.83,9.83,0,0,0-3.33,2.61l-5-4a14.81,14.81,0,0,1,5.58-4.44,17.17,17.17,0,0,1,7.32-1.56q7,0,10.68,3.24t3.66,9.48V45.37H65.7V42.25h-.48a10.41,10.41,0,0,1-3.63,2.94,11.33,11.33,0,0,1-5.19,1.14A11.37,11.37,0,0,1,48.42,43.48ZM63.69,38a7.34,7.34,0,0,0,2-5.13,14.9,14.9,0,0,0-6.42-1.44q-6.12,0-6.12,4.56a3.86,3.86,0,0,0,1.32,3,5.52,5.52,0,0,0,3.78,1.17A7,7,0,0,0,63.69,38Z" transform="translate(-9.18 -2.41)" fill="#fff"/><path d="M89.28,45.16a8.3,8.3,0,0,1-3.12-1.89q-2.82-2.7-2.82-7.68V21.49H78V14.77h5.34V6.13H91.2v8.64h7.5v6.72H91.2V34.15a4.63,4.63,0,0,0,1,3.36,3.67,3.67,0,0,0,2.88,1,5.13,5.13,0,0,0,1.89-.3,14.55,14.55,0,0,0,2-1v7.68a14.71,14.71,0,0,1-5.46,1A12.34,12.34,0,0,1,89.28,45.16Z" transform="translate(-9.18 -2.41)" fill="#fff"/><path d="M110.34,44.23a15,15,0,0,1-5.73-5.79,16.69,16.69,0,0,1-2.07-8.31,16.74,16.74,0,0,1,2-8.13,15.71,15.71,0,0,1,5.64-6,15,15,0,0,1,8-2.22,15.64,15.64,0,0,1,8.16,2,13.3,13.3,0,0,1,5.19,5.58,17.33,17.33,0,0,1,1.77,7.86,18.66,18.66,0,0,1-.18,2.64h-23a8.67,8.67,0,0,0,2.91,5.55,8.48,8.48,0,0,0,5.55,1.89,8.87,8.87,0,0,0,4.65-1.17,8.72,8.72,0,0,0,3.09-3.15l6.36,3.12q-4.68,8.16-14.22,8.16A16.22,16.22,0,0,1,110.34,44.23Zm15.48-17.88a6.07,6.07,0,0,0-1-2.85,7.33,7.33,0,0,0-2.58-2.34,7.8,7.8,0,0,0-3.87-.93,7.37,7.37,0,0,0-4.83,1.65,9.25,9.25,0,0,0-2.91,4.47Z" transform="translate(-9.18 -2.41)" fill="#fff"/><path d="M139.44,14.77h7.38v3.84h.48a9.65,9.65,0,0,1,3.9-3.51,11.81,11.81,0,0,1,5.46-1.29c3.67,0,6.48,1.12,8.4,3.36s2.88,5.3,2.88,9.18v19h-7.86V27.31a6.46,6.46,0,0,0-1.5-4.56,5.44,5.44,0,0,0-4.2-1.62,6.2,6.2,0,0,0-5.13,2.46,9.64,9.64,0,0,0-1.95,6.18v15.6h-7.86Z" transform="translate(-9.18 -2.41)" fill="#fff"/><path d="M183.06,45.16a8.3,8.3,0,0,1-3.12-1.89c-1.89-1.8-2.82-4.36-2.82-7.68V21.49h-5.34V14.77h5.34V6.13H185v8.64h7.5v6.72H185V34.15a4.63,4.63,0,0,0,1,3.36,3.67,3.67,0,0,0,2.88,1,5.2,5.2,0,0,0,1.89-.3,14.55,14.55,0,0,0,1.95-1v7.68a14.71,14.71,0,0,1-5.46,1A12.29,12.29,0,0,1,183.06,45.16Z" transform="translate(-9.18 -2.41)" fill="#fff"/><path d="M202.17,44.05a12.14,12.14,0,0,1-4.83-5.94l7-3.06a7.16,7.16,0,0,0,2.73,3.27,7.57,7.57,0,0,0,4.11,1.11,8.31,8.31,0,0,0,3.6-.69,2.33,2.33,0,0,0,1.44-2.25,2.45,2.45,0,0,0-1.32-2.25,15.17,15.17,0,0,0-4-1.35l-3.6-.78a13.17,13.17,0,0,1-6.18-3.27,7.87,7.87,0,0,1-2.46-5.91,7.65,7.65,0,0,1,1.59-4.74A10.21,10.21,0,0,1,204.63,15a15.5,15.5,0,0,1,6-1.14q9.48,0,12.66,6.66l-6.72,2.94a6.93,6.93,0,0,0-9-2.49,2.17,2.17,0,0,0-1.2,1.89c0,1.44,1.35,2.52,4.08,3.24l4.5,1.08a14.34,14.34,0,0,1,6.87,3.48,7.92,7.92,0,0,1,2.31,5.76,8.34,8.34,0,0,1-1.71,5.19,11.23,11.23,0,0,1-4.68,3.51,16.66,16.66,0,0,1-6.57,1.26A16.12,16.12,0,0,1,202.17,44.05Z" transform="translate(-9.18 -2.41)" fill="#fff"/><path d="M236.21,44.23a15,15,0,0,1-5.72-5.79,16.59,16.59,0,0,1-2.07-8.31,16.63,16.63,0,0,1,2-8.13,15.68,15.68,0,0,1,5.63-6,15,15,0,0,1,8-2.22,15.64,15.64,0,0,1,8.16,2,13.32,13.32,0,0,1,5.2,5.58,17.45,17.45,0,0,1,1.76,7.86,18.69,18.69,0,0,1-.17,2.64h-23A8.67,8.67,0,0,0,239,37.48a8.48,8.48,0,0,0,5.55,1.89,8.93,8.93,0,0,0,4.66-1.17,8.69,8.69,0,0,0,3.08-3.15l6.37,3.12q-4.68,8.16-14.23,8.16A16.22,16.22,0,0,1,236.21,44.23ZM251.7,26.35a6.2,6.2,0,0,0-1.06-2.85,7.24,7.24,0,0,0-2.58-2.34,7.74,7.74,0,0,0-3.86-.93,7.33,7.33,0,0,0-4.83,1.65,9.11,9.11,0,0,0-2.91,4.47Z" transform="translate(-9.18 -2.41)" fill="#fff"/><path d="M266.93,43.48A9.64,9.64,0,0,1,263.81,36a9.25,9.25,0,0,1,1.62-5.4,10.41,10.41,0,0,1,4.45-3.6,15.06,15.06,0,0,1,6.24-1.26,21.28,21.28,0,0,1,8.09,1.38V25.81a5.06,5.06,0,0,0-1.88-4.08,7.75,7.75,0,0,0-5.08-1.56,9.33,9.33,0,0,0-4.17,1,9.83,9.83,0,0,0-3.33,2.61l-5-4a14.81,14.81,0,0,1,5.58-4.44,17.18,17.18,0,0,1,7.33-1.56q7,0,10.67,3.24T292,26.53V45.37h-7.75V42.25h-.48a10.41,10.41,0,0,1-3.63,2.94,12.52,12.52,0,0,1-13.17-1.71ZM282.21,38a7.38,7.38,0,0,0,2-5.13,14.9,14.9,0,0,0-6.42-1.44q-6.12,0-6.12,4.56A3.84,3.84,0,0,0,273,39a5.47,5.47,0,0,0,3.77,1.17A7,7,0,0,0,282.21,38Z" transform="translate(-9.18 -2.41)" fill="#fff"/><path d="M299.21,14.77h7.38v4.08h.48a9,9,0,0,1,3.54-3.57,10.23,10.23,0,0,1,5.28-1.41,10.75,10.75,0,0,1,3.84.66v7.86a25.48,25.48,0,0,0-2.73-.87,10,10,0,0,0-2.37-.27,6.73,6.73,0,0,0-5.52,2.52,9.78,9.78,0,0,0-2,6.36V45.37h-7.86Z" transform="translate(-9.18 -2.41)" fill="#fff"/><path d="M329.21,44.26a14.77,14.77,0,0,1-5.73-5.79,17,17,0,0,1-2.07-8.4,16.81,16.81,0,0,1,2.07-8.37,15,15,0,0,1,5.73-5.79,16.34,16.34,0,0,1,8.28-2.1A16.75,16.75,0,0,1,346.25,16a12.47,12.47,0,0,1,5.28,6.21l-7.2,3q-1.92-4.08-6.84-4.08a7.75,7.75,0,0,0-5.91,2.46,9.08,9.08,0,0,0-2.31,6.48,9.17,9.17,0,0,0,2.31,6.54,7.75,7.75,0,0,0,5.91,2.46,7.52,7.52,0,0,0,7.2-4.32l7.14,3.12a14.72,14.72,0,0,1-5.64,6.24,17.88,17.88,0,0,1-17,.15Z" transform="translate(-9.18 -2.41)" fill="#fff"/><path d="M357.47,2.41h7.86V13.27l-.48,5.34h.48a9.57,9.57,0,0,1,3.84-3.48,11.59,11.59,0,0,1,5.46-1.32q5.58,0,8.55,3.33t3,9.21v19h-7.86V27.31a6.23,6.23,0,0,0-1.59-4.56,5.66,5.66,0,0,0-4.23-1.62,6.28,6.28,0,0,0-5.13,2.52,9.6,9.6,0,0,0-2,6.18V45.37h-7.86Z" transform="translate(-9.18 -2.41)" fill="#fff"/></svg>